Coordinates
version=1
nRows=19
nColumns=36
inDegrees=yes

Units are S.I. units (second, meters, Newtons, ...)
If the header above contains a line with 'inDegrees', this indicates whether rotational values are in degrees (yes) or radians (no).

endheader
time	pelvis_tilt	pelvis_list	pelvis_rotation	pelvis_tx	pelvis_ty	pelvis_tz	hip_flexion_r	hip_adduction_r	hip_rotation_r	knee_angle_r	knee_angle_r_beta	ankle_angle_r	subtalar_angle_r	mtp_angle_r	hip_flexion_l	hip_adduction_l	hip_rotation_l	knee_angle_l	knee_angle_l_beta	ankle_angle_l	subtalar_angle_l	mtp_angle_l	lumbar_extension	lumbar_bending	lumbar_rotation	arm_flex_r	arm_add_r	arm_rot_r	elbow_flex_r	pro_sup_r	arm_flex_l	arm_add_l	arm_rot_l	elbow_flex_l	pro_sup_l
      0.77000000	     -6.41220172	      1.33910290	     -8.26736606	      0.70706234	      0.88481632	     -0.25335120	     -0.63560313	     -3.42840046	      2.02259667	     42.06455284	      0.73416495	     -6.80637657	      3.37459880	     -6.79721417	     31.36773934	      2.91909368	      5.02946663	     23.83743980	      0.41604181	     -0.58000478	    -12.55031576	     -6.79721417	     -8.79704447	    -12.97134006	     -0.43909969	     -1.13602903	    -16.41963830	     21.51307567	     45.17285577	    104.27668139	      7.93099962	    -13.36001456	     -9.47251517	     33.40801461	    101.32297373
      0.78000000	     -6.48170559	      1.59166959	     -8.44117771	      0.71697172	      0.88605422	     -0.25369554	      1.42936438	     -4.11936971	      1.93795744	     45.56799054	      0.79531147	     -8.75559244	      3.57272366	     -6.80623316	     30.67782896	      3.31037248	      5.05063944	     23.79024313	      0.41521807	     -0.05152194	    -12.98754811	     -6.80623316	     -8.97999080	    -13.90380498	     -0.18703331	     -1.70967794	    -17.24410195	     23.66192600	     45.15630361	    104.50846814	      8.72892023	    -13.11482617	     -9.20540977	     33.64563342	    101.42480833
      0.79000000	     -6.59478660	      1.66121920	     -8.71520143	      0.72654163	      0.88724070	     -0.25386311	      3.56928745	     -4.45815694	      2.18588675	     48.94594419	      0.85426788	    -10.26429443	      3.34968989	     -6.87121534	     30.01931846	      3.47055880	      5.09792476	     23.72486178	      0.41407695	      0.11775202	    -13.76658672	     -6.87121534	     -9.06090556	    -14.59450721	     -0.78704955	     -0.72545767	    -18.53959212	     29.61851834	     44.25547060	    104.79500063	      8.75871579	    -13.11510191	     -9.57901603	     34.26656802	    101.76446236
      0.80000000	     -6.71887789	      1.75781822	     -9.12262869	      0.73591595	      0.88826954	     -0.25367671	      5.81775216	     -4.74448295	      2.58432351	     52.29660115	      0.91274788	    -11.16335031	      3.10368601	     -6.88880497	     29.37984525	      3.54440447	      4.89994309	     23.65211386	      0.41280726	      0.66429731	    -14.16066828	     -6.88880497	     -9.13640754	    -15.24516778	     -0.42316660	     -1.09862912	    -19.45652221	     31.80525903	     44.77538587	    104.98117687	      9.37274532	    -12.82126403	     -9.45837544	     34.71520278	    101.91693262
      0.81000000	     -6.82007923	      1.79442985	     -9.59300132	      0.74519741	      0.88938699	     -0.25328482	      8.03486404	     -4.88375403	      3.04000630	     55.45018812	      0.96778835	    -11.48457556	      2.76166351	     -6.92006948	     28.63928728	      3.53434280	      4.71368757	     23.47021107	      0.40963246	      1.26020461	    -14.56105230	     -6.92006948	     -9.15384001	    -15.82218333	     -0.38443576	     -0.79150583	    -20.38254013	     35.23541018	     44.77481438	    105.18944436	      9.64345369	    -12.72238032	     -9.38734876	     35.30229840	    102.12842219
      0.82000000	     -6.85653849	      1.87327872	    -10.07913165	      0.75434761	      0.89061525	     -0.25274361	     10.16070535	     -4.99868129	      3.51297325	     58.38499032	      1.01901031	    -11.29745503	      2.29365164	     -6.92653355	     27.81670733	      3.57579979	      4.55275482	     23.22303246	      0.40531838	      1.94453213	    -14.87673120	     -6.92653355	     -9.28288380	    -16.43219392	     -0.04170527	     -1.12686000	    -20.90175313	     36.29719411	     45.09211950	    105.29088344	     10.12505904	    -12.48544859	     -9.34473139	     35.91309176	    102.20754459
      0.83000000	     -6.95352025	      1.88054850	    -10.52811538	      0.76325778	      0.89176686	     -0.25208380	     12.32003152	     -4.92153941	      3.95054039	     61.12733478	      1.06687325	    -10.60108759	      1.65567929	     -6.93323610	     27.11910256	      3.50337010	      4.25984759	     23.05737551	      0.40242712	      2.51566574	    -15.11671536	     -6.93323610	     -9.31683263	    -16.91630811	      0.15659784	     -1.31778335	    -21.43499629	     37.53618154	     45.44556659	    105.41679733	     10.47629384	    -12.33490503	     -9.22047813	     36.52534367	    102.29372727
      0.84000000	     -7.05351262	      1.83778761	    -10.86877840	      0.77212230	      0.89296993	     -0.25145168	     14.37678474	     -4.74592175	      4.22702945	     63.57595537	      1.10960975	     -9.60993848	      0.92176592	     -6.94163178	     26.44946971	      3.39623190	      3.93983729	     22.91463168	      0.39993577	      3.05876236	    -15.20065494	     -6.94163178	     -9.32227631	    -17.32427898	      0.10419042	     -1.35885112	    -21.84783912	     38.74202665	     45.56101870	    105.50832213	     10.69561269	    -12.28544707	     -9.09939430	     37.20279855	    102.38237039
      0.85000000	     -7.07477774	      1.79359719	    -11.07222790	      0.78092749	      0.89438657	     -0.25087143	     16.26169162	     -4.54365517	      4.36826019	     65.72077858	      1.14704397	     -8.60316418	      0.05460272	     -6.94731223	     25.65578197	      3.36953429	      3.80095639	     22.69190959	      0.39604854	      3.60793729	    -15.19083675	     -6.94731223	     -9.48387475	    -17.73567440	     -0.11811948	     -1.44791129	    -22.02589587	     39.30369141	     45.43256185	    105.51960320	     10.91723389	    -12.27735976	     -9.02534402	     37.83415439	    102.44961224
      0.86000000	     -7.14485513	      1.74980590	    -11.13170597	      0.78973937	      0.89573241	     -0.25045251	     18.08820193	     -4.37209420	      4.26304662	     67.56293365	      1.17919564	     -7.51784776	     -0.99037949	     -6.95367349	     24.92605006	      3.36267585	      3.64023557	     22.43874311	      0.39162995	      4.15492685	    -15.03069329	     -6.95367349	     -9.60279863	    -18.10652228	     -0.51892815	     -1.54801312	    -22.06188834	     39.50639371	     45.10175808	    105.46202497	     11.02457464	    -12.31531854	     -8.97810195	     38.60403442	    102.52118248
      0.87000000	     -7.17457373	      1.69242619	    -11.02540410	      0.79857801	      0.89713851	     -0.25017504	     19.76468474	     -4.21079769	      3.98462739	     69.10216225	      1.20606025	     -6.53594607	     -2.11578136	     -6.95890412	     24.13275800	      3.41134091	      3.63575308	     22.13609368	      0.38634772	      4.68081182	    -14.78282306	     -6.95890412	     -9.79429993	    -18.45774177	     -1.10345044	     -1.69405447	    -21.94261098	     39.25474539	     44.62572080	    105.34559413	     11.12034295	    -12.40144705	     -8.95687115	     39.34715991	    102.58335796
      0.88000000	     -7.21588479	      1.55360536	    -10.73436478	      0.80744032	      0.89854391	     -0.25003904	     21.30269844	     -3.97876634	      3.48059902	     70.25608878	      1.22620007	     -5.96824417	     -3.64740782	     -6.97579187	     23.38560281	      3.37794000	      3.55359992	     21.88764324	      0.38201144	      5.51119388	    -13.96031994	     -6.97579187	    -10.08026515	    -18.70452023	     -1.89739236	     -1.95639155	    -21.50317163	     37.89179955	     43.89745581	    104.95921771	     10.97529578	    -12.44877113	     -9.24195100	     40.71740753	    102.64686840
      0.89000000	     -7.22446914	      1.50156005	    -10.30767153	      0.81643175	      0.89983646	     -0.25019015	     22.74388023	     -3.96511480	      2.80418090	     71.18821483	      1.24246874	     -5.03639367	     -4.83614856	     -6.98131191	     22.53173235	      3.56042440	      3.88981498	     21.46056092	      0.37455745	      6.00533469	    -13.61604833	     -6.98131191	    -10.32260071	    -19.00572117	     -2.76104161	     -2.20581698	    -21.25799714	     37.05618233	     43.37756765	    104.77033841	     11.08936105	    -12.58919599	     -9.18767573	     41.26684550	    102.69192188
      0.90000000	     -7.22475885	      1.36256416	     -9.72006128	      0.82542970	      0.90111245	     -0.25053562	     24.02960739	     -3.89990005	      1.96934854	     71.73401899	      1.25199482	     -4.32228761	     -6.03507680	     -6.98772884	     21.68817365	      3.69341270	      4.38321514	     21.07073029	      0.36775362	      6.52670227	    -13.17790692	     -6.98772884	    -10.66297500	    -19.17442974	     -3.78993246	     -2.46223408	    -20.80571713	     35.57282783	     42.67524703	    104.48054394	     11.07139508	    -12.75656298	     -9.07150001	     42.17179786	    102.76863868
      0.91000000	     -7.14607019	      1.08570950	     -9.12288881	      0.83436730	      0.90241176	     -0.25083767	     25.14517617	     -3.65647023	      1.13943015	     71.93024658	      1.25541963	     -4.28472883	     -7.20845685	     -7.00949586	     20.81261435	      3.63101924	      4.64320603	     20.81332953	      0.36326113	      7.24696348	    -12.47985110	     -7.00949586	    -11.20925276	    -19.15774235	     -4.50267321	     -3.31464739	    -20.18804811	     32.02652436	     42.57258546	    103.87369363	     11.18036901	    -12.69570107	     -9.12656755	     43.35833098	    102.79377313
      0.92000000	     -7.13529799	      0.89146031	     -8.40778255	      0.84332225	      0.90343726	     -0.25135698	     26.26988817	     -3.58217949	      0.21541372	     71.90612729	      1.25499867	     -3.57304337	     -7.74102521	     -7.03396344	     19.99999163	      3.71764117	      5.22862408	     20.47702554	      0.35739152	      7.71784099	    -12.02840163	     -7.03396344	    -11.58255042	    -19.16913219	     -5.30870178	     -3.94686920	    -19.75151672	     29.62933090	     42.50464132	    103.47282705	     11.44442915	    -12.81704181	     -8.51298032	     43.89396718	    102.81480195
      0.93000000	     -7.13914428	      0.68062017	     -7.69070407	      0.85220169	      0.90434849	     -0.25184544	     27.35877855	     -3.49093032	     -0.69399959	     71.59859852	      1.24963128	     -2.83598567	     -7.90224686	     -7.05615735	     19.22570574	      3.77151447	      5.87081765	     20.16281488	      0.35190751	      8.07368129	    -11.70295013	     -7.05615735	    -11.93107426	    -19.14207018	     -6.20442773	     -4.33128509	    -19.41420711	     27.90909721	     42.38893206	    103.18314364	     11.60872720	    -12.96545417	     -8.06002107	     44.49182645	    102.81556311
      0.94000000	     -7.19018147	      0.56956758	     -7.22345146	      0.86073594	      0.90506030	     -0.25193310	     28.59468162	     -3.26848090	     -1.13210802	     71.10900743	      1.24108631	     -2.63792235	     -7.93032447	     -7.05690251	     18.62466236	      3.77467147	      5.80762353	     19.99895635	      0.34904764	      8.16645504	    -11.67974811	     -7.05690251	    -12.11899094	    -19.26941676	     -6.75712690	     -4.45882604	    -19.44358435	     27.80290012	     42.29671698	    103.16060824	     12.03896672	    -12.97723737	     -7.96806390	     44.70820197	    102.84062169
      0.95000000	     -7.17341790	      0.23990262	     -6.27448778	      0.86981103	      0.90588885	     -0.25262685	     29.38949135	     -3.21849736	     -2.36933339	     70.19160709	      1.22507465	     -1.56897506	     -7.45483381	     -7.06692796	     17.73867220	      3.78115632	      7.10210466	     19.57777821	      0.34169669	      8.79096770	    -11.18563045	     -7.06692796	    -12.51741771	    -19.02081663	     -8.10446989	     -4.50327417	    -19.00140819	     26.36454174	     41.97655300	    102.88634730	     11.73227979	    -13.36736407	     -7.33662510	     45.75884265	    102.95136502
